<?xml version="1.0" encoding="UTF-8" standalone="no"?>
<!-- Created with Inkscape (http://www.inkscape.org/) -->

<svg
   xmlns:dc="http://purl.org/dc/elements/1.1/"
   xmlns:cc="http://creativecommons.org/ns#"
   xmlns:rdf="http://www.w3.org/1999/02/22-rdf-syntax-ns#"
   xmlns:svg="http://www.w3.org/2000/svg"
   xmlns="http://www.w3.org/2000/svg"
   xmlns:sodipodi="http://sodipodi.sourceforge.net/DTD/sodipodi-0.dtd"
   xmlns:inkscape="http://www.inkscape.org/namespaces/inkscape"
   width="638.32892"
   height="197.61278"
   id="svg2"
   version="1.1"
   inkscape:version="0.48.2 r9819"
   sodipodi:docname="range.svg">
  <defs
     id="defs4">
    <marker
       inkscape:stockid="Arrow1Sstart"
       orient="auto"
       refY="0"
       refX="0"
       id="Arrow1Sstart"
       style="overflow:visible">
      <path
         id="path4035"
         d="M 0,0 5,-5 -12.5,0 5,5 0,0 z"
         style="fill-rule:evenodd;stroke:#000000;stroke-width:1pt;marker-start:none"
         transform="matrix(0.2,0,0,0.2,1.2,0)"
         inkscape:connector-curvature="0" />
    </marker>
    <marker
       inkscape:stockid="Arrow1Mstart"
       orient="auto"
       refY="0"
       refX="0"
       id="Arrow1Mstart"
       style="overflow:visible">
      <path
         id="path4029"
         d="M 0,0 5,-5 -12.5,0 5,5 0,0 z"
         style="fill-rule:evenodd;stroke:#000000;stroke-width:1pt;marker-start:none"
         transform="matrix(0.4,0,0,0.4,4,0)"
         inkscape:connector-curvature="0" />
    </marker>
    <marker
       inkscape:stockid="Arrow1Mend"
       orient="auto"
       refY="0"
       refX="0"
       id="Arrow1Mend"
       style="overflow:visible">
      <path
         id="path4032"
         d="M 0,0 5,-5 -12.5,0 5,5 0,0 z"
         style="fill-rule:evenodd;stroke:#000000;stroke-width:1pt;marker-start:none"
         transform="matrix(-0.4,0,0,-0.4,-4,0)"
         inkscape:connector-curvature="0" />
    </marker>
    <marker
       inkscape:stockid="Arrow1Send"
       orient="auto"
       refY="0"
       refX="0"
       id="Arrow1Send"
       style="overflow:visible">
      <path
         id="path4038"
         d="M 0,0 5,-5 -12.5,0 5,5 0,0 z"
         style="fill-rule:evenodd;stroke:#000000;stroke-width:1pt;marker-start:none"
         transform="matrix(-0.2,0,0,-0.2,-1.2,0)"
         inkscape:connector-curvature="0" />
    </marker>
    <inkscape:path-effect
       effect="spiro"
       id="path-effect3957"
       is_visible="true" />
  </defs>
  <sodipodi:namedview
     id="base"
     pagecolor="#ffffff"
     bordercolor="#666666"
     borderopacity="1.0"
     inkscape:pageopacity="0.0"
     inkscape:pageshadow="2"
     inkscape:zoom="0.98994949"
     inkscape:cx="335.19831"
     inkscape:cy="58.197095"
     inkscape:document-units="px"
     inkscape:current-layer="layer1"
     showgrid="false"
     fit-margin-top="0"
     fit-margin-left="0"
     fit-margin-right="0"
     fit-margin-bottom="0"
     inkscape:window-width="1140"
     inkscape:window-height="865"
     inkscape:window-x="1967"
     inkscape:window-y="51"
     inkscape:window-maximized="0" />
  <metadata
     id="metadata7">
    <rdf:RDF>
      <cc:Work
         rdf:about="">
        <dc:format>image/svg+xml</dc:format>
        <dc:type
           rdf:resource="http://purl.org/dc/dcmitype/StillImage" />
        <dc:title />
      </cc:Work>
    </rdf:RDF>
  </metadata>
  <g
     inkscape:label="Layer 1"
     inkscape:groupmode="layer"
     id="layer1"
     transform="translate(-49.835548,-285.47162)">
    <path
       style="fill:none;stroke:#000000;stroke-width:4;stroke-linecap:butt;stroke-linejoin:miter;stroke-miterlimit:4;stroke-opacity:1;stroke-dasharray:none"
       d="M 70,435.93361 155.71429,306.6479"
       id="path4012"
       inkscape:connector-curvature="0" />
    <path
       style="fill:none;stroke:#000000;stroke-width:4;stroke-linecap:butt;stroke-linejoin:miter;stroke-miterlimit:4;stroke-opacity:1;stroke-dasharray:none"
       d="m 210.71429,435.93361 0,-130"
       id="path4014"
       inkscape:connector-curvature="0" />
    <path
       style="fill:none;stroke:#000000;stroke-width:4;stroke-linecap:butt;stroke-linejoin:miter;stroke-miterlimit:4;stroke-opacity:1;stroke-dasharray:none"
       d="m 347.85714,433.07647 -82.14285,-125"
       id="path4016"
       inkscape:connector-curvature="0" />
    <g
       id="g3901"
       transform="translate(-46.036282,11.680893)">
      <rect
         style="fill:#fdca01;fill-opacity:1;stroke:#000000;stroke-width:0.92109853;stroke-opacity:1"
         id="rect3869"
         width="39.078899"
         height="39.078903"
         x="184.74626"
         y="274.25128"
         rx="0.3007026" />
      <rect
         rx="0.3007026"
         y="274.25128"
         x="184.74626"
         height="39.078903"
         width="39.078899"
         id="rect3871"
         style="fill:#fdca01;fill-opacity:1;stroke:#000000;stroke-width:0.92109853;stroke-opacity:1" />
      <text
         xml:space="preserve"
         style="font-size:40px;font-style:normal;font-weight:normal;line-height:125%;letter-spacing:0px;word-spacing:0px;fill:#000000;fill-opacity:1;stroke:none;font-family:Bitstream Vera Sans"
         x="197.09383"
         y="301.80978"
         id="text3873"
         sodipodi:linespacing="125%"><tspan
           sodipodi:role="line"
           id="tspan3875"
           x="197.09383"
           y="301.80978"
           style="font-size:22px">1</tspan></text>
    </g>
    <g
       id="g3907"
       transform="translate(-40.112438,11.680893)">
      <rect
         rx="0.3007026"
         y="274.25128"
         x="233.31769"
         height="39.078903"
         width="39.078899"
         id="rect3877"
         style="fill:#fdca01;fill-opacity:1;stroke:#000000;stroke-width:0.92109853;stroke-opacity:1" />
      <rect
         style="fill:#fdca01;fill-opacity:1;stroke:#000000;stroke-width:0.92109853;stroke-opacity:1"
         id="rect3879"
         width="39.078899"
         height="39.078903"
         x="233.31769"
         y="274.25128"
         rx="0.3007026" />
      <text
         sodipodi:linespacing="125%"
         id="text3881"
         y="301.80978"
         x="238.66133"
         style="font-size:40px;font-style:normal;font-weight:normal;line-height:125%;letter-spacing:0px;word-spacing:0px;fill:#000000;fill-opacity:1;stroke:none;font-family:Bitstream Vera Sans"
         xml:space="preserve"><tspan
           style="font-size:22px"
           y="301.80978"
           x="238.66133"
           id="tspan3883"
           sodipodi:role="line">11</tspan></text>
    </g>
    <g
       id="g3913"
       transform="translate(-35.282836,10.490188)">
      <rect
         style="fill:#fdca01;fill-opacity:1;stroke:#000000;stroke-width:0.92109853;stroke-opacity:1"
         id="rect3885"
         width="39.078899"
         height="39.078903"
         x="282.98337"
         y="275.44199"
         rx="0.3007026" />
      <rect
         rx="0.3007026"
         y="275.44199"
         x="282.98337"
         height="39.078903"
         width="39.078899"
         id="rect3887"
         style="fill:#fdca01;fill-opacity:1;stroke:#000000;stroke-width:0.92109853;stroke-opacity:1" />
      <text
         xml:space="preserve"
         style="font-size:40px;font-style:normal;font-weight:normal;line-height:125%;letter-spacing:0px;word-spacing:0px;fill:#000000;fill-opacity:1;stroke:none;font-family:Bitstream Vera Sans"
         x="288.72986"
         y="303.14551"
         id="text3889"
         sodipodi:linespacing="125%"><tspan
           sodipodi:role="line"
           id="tspan3891"
           x="288.72986"
           y="303.14551"
           style="font-size:22px">21</tspan></text>
    </g>
    <rect
       style="fill:#fdca01;fill-opacity:1;stroke:#000000;stroke-width:0.92109853;stroke-opacity:1"
       id="rect2985"
       width="39.078899"
       height="39.078903"
       x="50.460548"
       y="412.82272"
       rx="0.3007026" />
    <rect
       rx="0.3007026"
       y="412.82272"
       x="94.460548"
       height="39.078903"
       width="39.078899"
       id="rect3755"
       style="fill:none;stroke:#000000;stroke-width:0.92109853;stroke-opacity:1" />
    <path
       sodipodi:type="arc"
       style="fill:#000000;fill-opacity:1;stroke:none"
       id="path3757"
       sodipodi:cx="145.89285"
       sodipodi:cy="427.18362"
       sodipodi:rx="4.1071429"
       sodipodi:ry="4.1071429"
       d="m 150,427.18362 c 0,2.26832 -1.83883,4.10715 -4.10715,4.10715 -2.26831,0 -4.10714,-1.83883 -4.10714,-4.10715 0,-2.26831 1.83883,-4.10714 4.10714,-4.10714 2.26832,0 4.10715,1.83883 4.10715,4.10714 z"
       transform="matrix(1.1304348,0,0,1.1304348,-18.136645,-50.54106)" />
    <path
       transform="matrix(1.1304348,0,0,1.1304348,-6.136645,-50.54106)"
       d="m 150,427.18362 c 0,2.26832 -1.83883,4.10715 -4.10715,4.10715 -2.26831,0 -4.10714,-1.83883 -4.10714,-4.10715 0,-2.26831 1.83883,-4.10714 4.10714,-4.10714 2.26832,0 4.10715,1.83883 4.10715,4.10714 z"
       sodipodi:ry="4.1071429"
       sodipodi:rx="4.1071429"
       sodipodi:cy="427.18362"
       sodipodi:cx="145.89285"
       id="path3759"
       style="fill:#000000;fill-opacity:1;stroke:none"
       sodipodi:type="arc" />
    <path
       sodipodi:type="arc"
       style="fill:#000000;fill-opacity:1;stroke:none"
       id="path3761"
       sodipodi:cx="145.89285"
       sodipodi:cy="427.18362"
       sodipodi:rx="4.1071429"
       sodipodi:ry="4.1071429"
       d="m 150,427.18362 c 0,2.26832 -1.83883,4.10715 -4.10715,4.10715 -2.26831,0 -4.10714,-1.83883 -4.10714,-4.10715 0,-2.26831 1.83883,-4.10714 4.10714,-4.10714 2.26832,0 4.10715,1.83883 4.10715,4.10714 z"
       transform="matrix(1.1304348,0,0,1.1304348,5.863355,-50.54106)" />
    <rect
       rx="0.3007026"
       y="412.82272"
       x="50.460548"
       height="39.078903"
       width="39.078899"
       id="rect3763"
       style="fill:#fdca01;fill-opacity:1;stroke:#d92d2d;stroke-width:1.25;stroke-miterlimit:4;stroke-opacity:1;stroke-dasharray:none" />
    <rect
       style="fill:none;stroke:#d92d2d;stroke-width:1.25;stroke-miterlimit:4;stroke-opacity:1;stroke-dasharray:none"
       id="rect3765"
       width="39.078899"
       height="39.078903"
       x="94.460548"
       y="412.82272"
       rx="0.3007026" />
    <path
       transform="matrix(1.1304348,0,0,1.1304348,-18.136645,-50.54106)"
       d="m 150,427.18362 c 0,2.26832 -1.83883,4.10715 -4.10715,4.10715 -2.26831,0 -4.10714,-1.83883 -4.10714,-4.10715 0,-2.26831 1.83883,-4.10714 4.10714,-4.10714 2.26832,0 4.10715,1.83883 4.10715,4.10714 z"
       sodipodi:ry="4.1071429"
       sodipodi:rx="4.1071429"
       sodipodi:cy="427.18362"
       sodipodi:cx="145.89285"
       id="path3767"
       style="fill:#000000;fill-opacity:1;stroke:none"
       sodipodi:type="arc" />
    <path
       sodipodi:type="arc"
       style="fill:#000000;fill-opacity:1;stroke:none"
       id="path3769"
       sodipodi:cx="145.89285"
       sodipodi:cy="427.18362"
       sodipodi:rx="4.1071429"
       sodipodi:ry="4.1071429"
       d="m 150,427.18362 c 0,2.26832 -1.83883,4.10715 -4.10715,4.10715 -2.26831,0 -4.10714,-1.83883 -4.10714,-4.10715 0,-2.26831 1.83883,-4.10714 4.10714,-4.10714 2.26832,0 4.10715,1.83883 4.10715,4.10714 z"
       transform="matrix(1.1304348,0,0,1.1304348,-6.136645,-50.54106)" />
    <path
       transform="matrix(1.1304348,0,0,1.1304348,5.863355,-50.54106)"
       d="m 150,427.18362 c 0,2.26832 -1.83883,4.10715 -4.10715,4.10715 -2.26831,0 -4.10714,-1.83883 -4.10714,-4.10715 0,-2.26831 1.83883,-4.10714 4.10714,-4.10714 2.26832,0 4.10715,1.83883 4.10715,4.10714 z"
       sodipodi:ry="4.1071429"
       sodipodi:rx="4.1071429"
       sodipodi:cy="427.18362"
       sodipodi:cx="145.89285"
       id="path3771"
       style="fill:#000000;fill-opacity:1;stroke:none"
       sodipodi:type="arc" />
    <text
       xml:space="preserve"
       style="font-size:40px;font-style:normal;font-weight:normal;line-height:125%;letter-spacing:0px;word-spacing:0px;fill:#980101;fill-opacity:1;stroke:none;font-family:Bitstream Vera Sans"
       x="62.808105"
       y="440.38123"
       id="text3773"
       sodipodi:linespacing="125%"><tspan
         sodipodi:role="line"
         id="tspan3775"
         x="62.808105"
         y="440.38123"
         style="font-size:22px;fill:#980101">1</tspan></text>
    <text
       sodipodi:linespacing="125%"
       id="text3777"
       y="440.52625"
       x="107.29688"
       style="font-size:40px;font-style:normal;font-weight:normal;line-height:125%;letter-spacing:0px;word-spacing:0px;fill:#980101;fill-opacity:1;stroke:none;font-family:Bitstream Vera Sans"
       xml:space="preserve"><tspan
         style="font-size:22px;fill:#980101"
         y="440.52625"
         x="107.29688"
         id="tspan3779"
         sodipodi:role="line">2</tspan></text>
    <rect
       rx="0.3007026"
       y="412.82272"
       x="190.46054"
       height="39.078903"
       width="39.078899"
       id="rect3781"
       style="fill:#fdca01;fill-opacity:1;stroke:#000000;stroke-width:0.92109853;stroke-opacity:1" />
    <rect
       style="fill:none;stroke:#000000;stroke-width:0.92109853;stroke-opacity:1"
       id="rect3783"
       width="39.078899"
       height="39.078903"
       x="234.46054"
       y="412.82272"
       rx="0.3007026" />
    <path
       transform="matrix(1.1304348,0,0,1.1304348,121.86336,-50.54106)"
       d="m 150,427.18362 c 0,2.26832 -1.83883,4.10715 -4.10715,4.10715 -2.26831,0 -4.10714,-1.83883 -4.10714,-4.10715 0,-2.26831 1.83883,-4.10714 4.10714,-4.10714 2.26832,0 4.10715,1.83883 4.10715,4.10714 z"
       sodipodi:ry="4.1071429"
       sodipodi:rx="4.1071429"
       sodipodi:cy="427.18362"
       sodipodi:cx="145.89285"
       id="path3785"
       style="fill:#000000;fill-opacity:1;stroke:none"
       sodipodi:type="arc" />
    <path
       sodipodi:type="arc"
       style="fill:#000000;fill-opacity:1;stroke:none"
       id="path3787"
       sodipodi:cx="145.89285"
       sodipodi:cy="427.18362"
       sodipodi:rx="4.1071429"
       sodipodi:ry="4.1071429"
       d="m 150,427.18362 c 0,2.26832 -1.83883,4.10715 -4.10715,4.10715 -2.26831,0 -4.10714,-1.83883 -4.10714,-4.10715 0,-2.26831 1.83883,-4.10714 4.10714,-4.10714 2.26832,0 4.10715,1.83883 4.10715,4.10714 z"
       transform="matrix(1.1304348,0,0,1.1304348,133.86336,-50.54106)" />
    <path
       transform="matrix(1.1304348,0,0,1.1304348,145.86336,-50.54106)"
       d="m 150,427.18362 c 0,2.26832 -1.83883,4.10715 -4.10715,4.10715 -2.26831,0 -4.10714,-1.83883 -4.10714,-4.10715 0,-2.26831 1.83883,-4.10714 4.10714,-4.10714 2.26832,0 4.10715,1.83883 4.10715,4.10714 z"
       sodipodi:ry="4.1071429"
       sodipodi:rx="4.1071429"
       sodipodi:cy="427.18362"
       sodipodi:cx="145.89285"
       id="path3789"
       style="fill:#000000;fill-opacity:1;stroke:none"
       sodipodi:type="arc" />
    <rect
       style="fill:#fdca01;fill-opacity:1;stroke:#d92d2d;stroke-width:1.25;stroke-miterlimit:4;stroke-opacity:1;stroke-dasharray:none"
       id="rect3791"
       width="39.078899"
       height="39.078903"
       x="190.46054"
       y="412.82272"
       rx="0.3007026" />
    <rect
       rx="0.3007026"
       y="412.82272"
       x="234.46054"
       height="39.078903"
       width="39.078899"
       id="rect3793"
       style="fill:none;stroke:#d92d2d;stroke-width:1.25;stroke-miterlimit:4;stroke-opacity:1;stroke-dasharray:none" />
    <path
       sodipodi:type="arc"
       style="fill:#000000;fill-opacity:1;stroke:none"
       id="path3795"
       sodipodi:cx="145.89285"
       sodipodi:cy="427.18362"
       sodipodi:rx="4.1071429"
       sodipodi:ry="4.1071429"
       d="m 150,427.18362 c 0,2.26832 -1.83883,4.10715 -4.10715,4.10715 -2.26831,0 -4.10714,-1.83883 -4.10714,-4.10715 0,-2.26831 1.83883,-4.10714 4.10714,-4.10714 2.26832,0 4.10715,1.83883 4.10715,4.10714 z"
       transform="matrix(1.1304348,0,0,1.1304348,121.86336,-50.54106)" />
    <path
       transform="matrix(1.1304348,0,0,1.1304348,133.86336,-50.54106)"
       d="m 150,427.18362 c 0,2.26832 -1.83883,4.10715 -4.10715,4.10715 -2.26831,0 -4.10714,-1.83883 -4.10714,-4.10715 0,-2.26831 1.83883,-4.10714 4.10714,-4.10714 2.26832,0 4.10715,1.83883 4.10715,4.10714 z"
       sodipodi:ry="4.1071429"
       sodipodi:rx="4.1071429"
       sodipodi:cy="427.18362"
       sodipodi:cx="145.89285"
       id="path3797"
       style="fill:#000000;fill-opacity:1;stroke:none"
       sodipodi:type="arc" />
    <path
       sodipodi:type="arc"
       style="fill:#000000;fill-opacity:1;stroke:none"
       id="path3799"
       sodipodi:cx="145.89285"
       sodipodi:cy="427.18362"
       sodipodi:rx="4.1071429"
       sodipodi:ry="4.1071429"
       d="m 150,427.18362 c 0,2.26832 -1.83883,4.10715 -4.10715,4.10715 -2.26831,0 -4.10714,-1.83883 -4.10714,-4.10715 0,-2.26831 1.83883,-4.10714 4.10714,-4.10714 2.26832,0 4.10715,1.83883 4.10715,4.10714 z"
       transform="matrix(1.1304348,0,0,1.1304348,145.86336,-50.54106)" />
    <text
       sodipodi:linespacing="125%"
       id="text3801"
       y="440.38123"
       x="195.80418"
       style="font-size:40px;font-style:normal;font-weight:normal;line-height:125%;letter-spacing:0px;word-spacing:0px;fill:#980101;fill-opacity:1;stroke:none;font-family:Bitstream Vera Sans"
       xml:space="preserve"><tspan
         style="font-size:22px;fill:#980101"
         y="440.38123"
         x="195.80418"
         id="tspan3803"
         sodipodi:role="line">11</tspan></text>
    <text
       xml:space="preserve"
       style="font-size:40px;font-style:normal;font-weight:normal;line-height:125%;letter-spacing:0px;word-spacing:0px;fill:#980101;fill-opacity:1;stroke:none;font-family:Bitstream Vera Sans"
       x="239.89012"
       y="440.52625"
       id="text3805"
       sodipodi:linespacing="125%"><tspan
         sodipodi:role="line"
         id="tspan3807"
         x="239.89012"
         y="440.52625"
         style="font-size:22px;fill:#980101">12</tspan></text>
    <rect
       style="fill:#fdca01;fill-opacity:1;stroke:#000000;stroke-width:0.92109853;stroke-opacity:1"
       id="rect3809"
       width="39.078899"
       height="39.078903"
       x="330.46054"
       y="412.82272"
       rx="0.3007026" />
    <rect
       rx="0.3007026"
       y="412.82272"
       x="374.46054"
       height="39.078903"
       width="39.078899"
       id="rect3811"
       style="fill:none;stroke:#000000;stroke-width:0.92109853;stroke-opacity:1" />
    <path
       sodipodi:type="arc"
       style="fill:#000000;fill-opacity:1;stroke:none"
       id="path3813"
       sodipodi:cx="145.89285"
       sodipodi:cy="427.18362"
       sodipodi:rx="4.1071429"
       sodipodi:ry="4.1071429"
       d="m 150,427.18362 c 0,2.26832 -1.83883,4.10715 -4.10715,4.10715 -2.26831,0 -4.10714,-1.83883 -4.10714,-4.10715 0,-2.26831 1.83883,-4.10714 4.10714,-4.10714 2.26832,0 4.10715,1.83883 4.10715,4.10714 z"
       transform="matrix(1.1304348,0,0,1.1304348,261.86336,-50.54106)" />
    <path
       transform="matrix(1.1304348,0,0,1.1304348,273.86336,-50.54106)"
       d="m 150,427.18362 c 0,2.26832 -1.83883,4.10715 -4.10715,4.10715 -2.26831,0 -4.10714,-1.83883 -4.10714,-4.10715 0,-2.26831 1.83883,-4.10714 4.10714,-4.10714 2.26832,0 4.10715,1.83883 4.10715,4.10714 z"
       sodipodi:ry="4.1071429"
       sodipodi:rx="4.1071429"
       sodipodi:cy="427.18362"
       sodipodi:cx="145.89285"
       id="path3815"
       style="fill:#000000;fill-opacity:1;stroke:none"
       sodipodi:type="arc" />
    <path
       sodipodi:type="arc"
       style="fill:#000000;fill-opacity:1;stroke:none"
       id="path3817"
       sodipodi:cx="145.89285"
       sodipodi:cy="427.18362"
       sodipodi:rx="4.1071429"
       sodipodi:ry="4.1071429"
       d="m 150,427.18362 c 0,2.26832 -1.83883,4.10715 -4.10715,4.10715 -2.26831,0 -4.10714,-1.83883 -4.10714,-4.10715 0,-2.26831 1.83883,-4.10714 4.10714,-4.10714 2.26832,0 4.10715,1.83883 4.10715,4.10714 z"
       transform="matrix(1.1304348,0,0,1.1304348,285.86336,-50.54106)" />
    <rect
       rx="0.3007026"
       y="412.82272"
       x="330.46054"
       height="39.078903"
       width="39.078899"
       id="rect3819"
       style="fill:#fdca01;fill-opacity:1;stroke:#d92d2d;stroke-width:1.25;stroke-miterlimit:4;stroke-opacity:1;stroke-dasharray:none" />
    <rect
       style="fill:none;stroke:#d92d2d;stroke-width:1.25;stroke-miterlimit:4;stroke-opacity:1;stroke-dasharray:none"
       id="rect3821"
       width="39.078899"
       height="39.078903"
       x="374.46054"
       y="412.82272"
       rx="0.3007026" />
    <path
       transform="matrix(1.1304348,0,0,1.1304348,261.86336,-50.54106)"
       d="m 150,427.18362 c 0,2.26832 -1.83883,4.10715 -4.10715,4.10715 -2.26831,0 -4.10714,-1.83883 -4.10714,-4.10715 0,-2.26831 1.83883,-4.10714 4.10714,-4.10714 2.26832,0 4.10715,1.83883 4.10715,4.10714 z"
       sodipodi:ry="4.1071429"
       sodipodi:rx="4.1071429"
       sodipodi:cy="427.18362"
       sodipodi:cx="145.89285"
       id="path3823"
       style="fill:#000000;fill-opacity:1;stroke:none"
       sodipodi:type="arc" />
    <path
       sodipodi:type="arc"
       style="fill:#000000;fill-opacity:1;stroke:none"
       id="path3825"
       sodipodi:cx="145.89285"
       sodipodi:cy="427.18362"
       sodipodi:rx="4.1071429"
       sodipodi:ry="4.1071429"
       d="m 150,427.18362 c 0,2.26832 -1.83883,4.10715 -4.10715,4.10715 -2.26831,0 -4.10714,-1.83883 -4.10714,-4.10715 0,-2.26831 1.83883,-4.10714 4.10714,-4.10714 2.26832,0 4.10715,1.83883 4.10715,4.10714 z"
       transform="matrix(1.1304348,0,0,1.1304348,273.86336,-50.54106)" />
    <path
       transform="matrix(1.1304348,0,0,1.1304348,285.86336,-50.54106)"
       d="m 150,427.18362 c 0,2.26832 -1.83883,4.10715 -4.10715,4.10715 -2.26831,0 -4.10714,-1.83883 -4.10714,-4.10715 0,-2.26831 1.83883,-4.10714 4.10714,-4.10714 2.26832,0 4.10715,1.83883 4.10715,4.10714 z"
       sodipodi:ry="4.1071429"
       sodipodi:rx="4.1071429"
       sodipodi:cy="427.18362"
       sodipodi:cx="145.89285"
       id="path3827"
       style="fill:#000000;fill-opacity:1;stroke:none"
       sodipodi:type="arc" />
    <text
       xml:space="preserve"
       style="font-size:40px;font-style:normal;font-weight:normal;line-height:125%;letter-spacing:0px;word-spacing:0px;fill:#980101;fill-opacity:1;stroke:none;font-family:Bitstream Vera Sans"
       x="336.20703"
       y="440.52625"
       id="text3829"
       sodipodi:linespacing="125%"><tspan
         sodipodi:role="line"
         id="tspan3831"
         x="336.20703"
         y="440.52625"
         style="font-size:22px;fill:#980101">21</tspan></text>
    <text
       sodipodi:linespacing="125%"
       id="text3833"
       y="440.52625"
       x="380.29297"
       style="font-size:40px;font-style:normal;font-weight:normal;line-height:125%;letter-spacing:0px;word-spacing:0px;fill:#980101;fill-opacity:1;stroke:none;font-family:Bitstream Vera Sans"
       xml:space="preserve"><tspan
         style="font-size:22px;fill:#980101"
         y="440.52625"
         x="380.29297"
         id="tspan3835"
         sodipodi:role="line">22</tspan></text>
    <rect
       rx="0.3007026"
       y="412.82272"
       x="514.46057"
       height="39.078903"
       width="39.078899"
       id="rect3837"
       style="fill:#fdca01;fill-opacity:1;stroke:#000000;stroke-width:0.92109853;stroke-opacity:1" />
    <rect
       style="fill:none;stroke:#000000;stroke-width:0.92109853;stroke-opacity:1"
       id="rect3839"
       width="39.078899"
       height="39.078903"
       x="558.46057"
       y="412.82272"
       rx="0.3007026" />
    <path
       transform="matrix(1.1304348,0,0,1.1304348,445.86336,-50.54106)"
       d="m 150,427.18362 c 0,2.26832 -1.83883,4.10715 -4.10715,4.10715 -2.26831,0 -4.10714,-1.83883 -4.10714,-4.10715 0,-2.26831 1.83883,-4.10714 4.10714,-4.10714 2.26832,0 4.10715,1.83883 4.10715,4.10714 z"
       sodipodi:ry="4.1071429"
       sodipodi:rx="4.1071429"
       sodipodi:cy="427.18362"
       sodipodi:cx="145.89285"
       id="path3841"
       style="fill:#000000;fill-opacity:1;stroke:none"
       sodipodi:type="arc" />
    <path
       sodipodi:type="arc"
       style="fill:#000000;fill-opacity:1;stroke:none"
       id="path3843"
       sodipodi:cx="145.89285"
       sodipodi:cy="427.18362"
       sodipodi:rx="4.1071429"
       sodipodi:ry="4.1071429"
       d="m 150,427.18362 c 0,2.26832 -1.83883,4.10715 -4.10715,4.10715 -2.26831,0 -4.10714,-1.83883 -4.10714,-4.10715 0,-2.26831 1.83883,-4.10714 4.10714,-4.10714 2.26832,0 4.10715,1.83883 4.10715,4.10714 z"
       transform="matrix(1.1304348,0,0,1.1304348,457.86336,-50.54106)" />
    <path
       transform="matrix(1.1304348,0,0,1.1304348,469.86336,-50.54106)"
       d="m 150,427.18362 c 0,2.26832 -1.83883,4.10715 -4.10715,4.10715 -2.26831,0 -4.10714,-1.83883 -4.10714,-4.10715 0,-2.26831 1.83883,-4.10714 4.10714,-4.10714 2.26832,0 4.10715,1.83883 4.10715,4.10714 z"
       sodipodi:ry="4.1071429"
       sodipodi:rx="4.1071429"
       sodipodi:cy="427.18362"
       sodipodi:cx="145.89285"
       id="path3845"
       style="fill:#000000;fill-opacity:1;stroke:none"
       sodipodi:type="arc" />
    <rect
       style="fill:#ffffff;fill-opacity:1;stroke:#000000;stroke-width:1.25;stroke-miterlimit:4;stroke-opacity:1;stroke-dasharray:none"
       id="rect3847"
       width="39.078899"
       height="39.078903"
       x="514.46057"
       y="412.82272"
       rx="0.3007026" />
    <rect
       rx="0.3007026"
       y="412.82272"
       x="558.46057"
       height="39.078903"
       width="39.078899"
       id="rect3849"
       style="fill:none;stroke:#000000;stroke-width:1.25;stroke-miterlimit:4;stroke-opacity:1;stroke-dasharray:none" />
    <path
       sodipodi:type="arc"
       style="fill:#000000;fill-opacity:1;stroke:none"
       id="path3851"
       sodipodi:cx="145.89285"
       sodipodi:cy="427.18362"
       sodipodi:rx="4.1071429"
       sodipodi:ry="4.1071429"
       d="m 150,427.18362 c 0,2.26832 -1.83883,4.10715 -4.10715,4.10715 -2.26831,0 -4.10714,-1.83883 -4.10714,-4.10715 0,-2.26831 1.83883,-4.10714 4.10714,-4.10714 2.26832,0 4.10715,1.83883 4.10715,4.10714 z"
       transform="matrix(1.1304348,0,0,1.1304348,445.86336,-50.54106)" />
    <path
       transform="matrix(1.1304348,0,0,1.1304348,457.86336,-50.54106)"
       d="m 150,427.18362 c 0,2.26832 -1.83883,4.10715 -4.10715,4.10715 -2.26831,0 -4.10714,-1.83883 -4.10714,-4.10715 0,-2.26831 1.83883,-4.10714 4.10714,-4.10714 2.26832,0 4.10715,1.83883 4.10715,4.10714 z"
       sodipodi:ry="4.1071429"
       sodipodi:rx="4.1071429"
       sodipodi:cy="427.18362"
       sodipodi:cx="145.89285"
       id="path3853"
       style="fill:#000000;fill-opacity:1;stroke:none"
       sodipodi:type="arc" />
    <path
       sodipodi:type="arc"
       style="fill:#000000;fill-opacity:1;stroke:none"
       id="path3855"
       sodipodi:cx="145.89285"
       sodipodi:cy="427.18362"
       sodipodi:rx="4.1071429"
       sodipodi:ry="4.1071429"
       d="m 150,427.18362 c 0,2.26832 -1.83883,4.10715 -4.10715,4.10715 -2.26831,0 -4.10714,-1.83883 -4.10714,-4.10715 0,-2.26831 1.83883,-4.10714 4.10714,-4.10714 2.26832,0 4.10715,1.83883 4.10715,4.10714 z"
       transform="matrix(1.1304348,0,0,1.1304348,469.86336,-50.54106)" />
    <text
       sodipodi:linespacing="125%"
       id="text3857"
       y="440.37048"
       x="520.1748"
       style="font-size:40px;font-style:normal;font-weight:normal;line-height:125%;letter-spacing:0px;word-spacing:0px;fill:#000000;fill-opacity:1;stroke:none;font-family:Bitstream Vera Sans"
       xml:space="preserve"><tspan
         style="font-size:22px"
         y="440.37048"
         x="520.1748"
         id="tspan3859"
         sodipodi:role="line">31</tspan></text>
    <text
       xml:space="preserve"
       style="font-size:40px;font-style:normal;font-weight:normal;line-height:125%;letter-spacing:0px;word-spacing:0px;fill:#000000;fill-opacity:1;stroke:none;font-family:Bitstream Vera Sans"
       x="564.26074"
       y="440.37048"
       id="text3861"
       sodipodi:linespacing="125%"><tspan
         sodipodi:role="line"
         id="tspan3863"
         x="564.26074"
         y="440.37048"
         style="font-size:22px">32</tspan></text>
    <rect
       style="fill:#fdca01;fill-opacity:1;stroke:#000000;stroke-width:0.92109853;stroke-opacity:1"
       id="rect3998"
       width="39.078899"
       height="39.078903"
       x="470.46057"
       y="412.82272"
       rx="0.3007026" />
    <rect
       rx="0.3007026"
       y="412.82272"
       x="470.46057"
       height="39.078903"
       width="39.078899"
       id="rect4000"
       style="fill:#ffffff;fill-opacity:1;stroke:#d92d2d;stroke-width:1.25;stroke-miterlimit:4;stroke-opacity:1;stroke-dasharray:none" />
    <text
       xml:space="preserve"
       style="font-size:40px;font-style:normal;font-weight:normal;line-height:125%;letter-spacing:0px;word-spacing:0px;fill:#980101;fill-opacity:1;stroke:none;font-family:Bitstream Vera Sans"
       x="475.89017"
       y="440.37048"
       id="text4002"
       sodipodi:linespacing="125%"><tspan
         sodipodi:role="line"
         id="tspan4004"
         x="475.89017"
         y="440.37048"
         style="font-size:22px;fill:#980101">30</tspan></text>
    <path
       style="fill:#980101;stroke:#c20000;stroke-width:3.36899996;stroke-linecap:butt;stroke-linejoin:miter;stroke-miterlimit:4;stroke-opacity:1;stroke-dasharray:none;stroke-dashoffset:0;marker-start:url(#Arrow1Mstart);marker-end:url(#Arrow1Mend)"
       d="m 56.011413,475.50416 444.133657,0"
       id="path4018"
       inkscape:connector-curvature="0" />
    <rect
       rx="0.3007026"
       y="412.82272"
       x="648.46057"
       height="39.078903"
       width="39.078899"
       id="rect5437"
       style="fill:none;stroke:#000000;stroke-width:0.92109853;stroke-opacity:1" />
    <rect
       style="fill:none;stroke:#000000;stroke-width:1.25;stroke-miterlimit:4;stroke-opacity:1;stroke-dasharray:none"
       id="rect5439"
       width="39.078899"
       height="39.078903"
       x="648.46057"
       y="412.82272"
       rx="0.3007026" />
    <text
       sodipodi:linespacing="125%"
       id="text5441"
       y="440.22546"
       x="654.16406"
       style="font-size:40px;font-style:normal;font-weight:normal;line-height:125%;letter-spacing:0px;word-spacing:0px;fill:#000000;fill-opacity:1;stroke:none;font-family:Bitstream Vera Sans"
       xml:space="preserve"><tspan
         style="font-size:22px"
         y="440.22546"
         x="654.16406"
         id="tspan5443"
         sodipodi:role="line">51</tspan></text>
  </g>
</svg>
